<svg width="300" height="300" viewBox="0 0 300 300" fill="none" xmlns="http://www.w3.org/2000/svg">
<path d="M261.4 300H38.5C17.2 300 0 282.7 0 261.5V38.5C0 17.2 17.3 0 38.5 0H261.4C282.7 0 299.9 17.3 299.9 38.5V261.4C299.9 282.7 282.7 300 261.4 300Z" fill="#F27574"/>
<path d="M275.3 125.8C275.3 134.2 275.5 142.7 275.3 151.1C274.5 190.8 243.8 222.5 205.2 223.4C164.3 224.4 131.5 195 128.6 154.8C127.8 143.3 133.2 135.4 142.6 134.2C152.8 132.9 159.2 139 161 151.7C164.5 176.6 181.1 191.6 204.2 190.6C226.9 189.6 242.3 172.5 242.8 147.4C243.1 130.9 242.7 114.5 242.9 98.0002C242.9 64.0002 247.8 45.1002 258 45.0002C268.1 44.9002 274.934 63.0002 275.3 97.8002C275.4 107.3 275.3 116.6 275.3 125.8Z" fill="white"/>
<path d="M47.5 174.8C48.6 160.5 47.9 145.9 51.1 132.1C59.2 97.6004 92.5 73.8004 126.2 76.6004C163.1 79.7004 192.2 108 195.5 144.2C196.6 156.7 190.5 165.7 180.2 166.6C170.7 167.4 164.4 160.6 162.7 147.7C159.6 124.3 141.7 108.2 120 109.4C97.9 110.6 81.8 127.8 81.3 151.5C80.9 168.4 81.3 185.3 81.1 202.2C81 216.3 75.5 223.3 64.9 223.5C54.1 223.7 48.6 216.8 48.4 202.8C48.4 193.5 47.8 174.9 47.5 174.8Z" fill="white"/>
</svg>
